<svg id="Layer_1" data-name="Layer 1" xmlns="http://www.w3.org/2000/svg" xmlns:xlink="http://www.w3.org/1999/xlink" viewBox="0 0 308 33"><defs><style>.cls-1{fill:none;}.cls-2{clip-path:url(#clip-path);}.cls-3{fill:#fff;}</style><clipPath id="clip-path"><rect class="cls-1" width="307.55" height="32.68"/></clipPath></defs><title>logo</title><g class="cls-2"><path class="cls-3" d="M294.06,27.68h13.49V24.21h-9.62V20.49h8.36V17h-8.36V13.43h9.5V10H294.06Zm-21.9,0H276V16.41l8.58,11.27h3.32V10h-3.85V20.87L275.76,10h-3.6Zm-10.22,0h3.9V10h-3.9Zm-17.75,0h12.73V24.14h-8.83V10h-3.9Zm-21.9,0h3.85V16.41l8.58,11.27H238V10h-3.85V20.87L225.89,10h-3.6Zm-14.76-3.29a5.38,5.38,0,0,1-5.36-5.57v-.05a5.3,5.3,0,0,1,5.31-5.52,5.39,5.39,0,0,1,5.37,5.57v.05a5.3,5.3,0,0,1-5.32,5.52M207.48,28a9.16,9.16,0,0,0,9.45-9.16v-.05a9.42,9.42,0,0,0-18.84.05v.05A9.08,9.08,0,0,0,207.48,28m-36.6-.3h3.9V20.82h8.45V17.28h-8.45V13.5h9.59V10H170.88Zm-10.23,0h3.9V10h-3.9ZM146.83,28c4.76,0,7.77-2.63,7.77-8V10h-3.9V20.11c0,2.81-1.44,4.25-3.82,4.25s-3.82-1.49-3.82-4.38V10h-3.9V20.09c0,5.21,2.91,7.87,7.67,7.87"/></g><rect class="cls-3" x="116.22" y="3.71" width="0.55" height="28.97"/><g class="cls-2"><path class="cls-3" d="M57.24,16.36,54.9,17.5c-.23-.88-.71-1.4-1.56-1.4-1.15,0-1.73,1-1.73,2.54s.58,2.5,1.73,2.5A1.5,1.5,0,0,0,54.85,20l2.44.88a4,4,0,0,1-4,2.47c-2.85,0-4.47-1.93-4.47-4.71s1.72-4.71,4.52-4.71a3.94,3.94,0,0,1,3.86,2.43m-9.69,6.83h-2.7v-9.1h2.7Zm-4.34-3.72a4.49,4.49,0,0,1-.49,2.5c-.6,1-2.18,1.39-3.57,1.39s-3-.39-3.57-1.39a4.49,4.49,0,0,1-.49-2.5V14.09h2.69v5.43a2,2,0,0,0,.31,1.29,1.31,1.31,0,0,0,1.06.37,1.29,1.29,0,0,0,1.05-.37,2,2,0,0,0,.31-1.29V14.09h2.7ZM45.89,4.26a14,14,0,1,0,13.79,14A13.87,13.87,0,0,0,45.89,4.26"/><path class="cls-3" d="M74.62,20.81a1.48,1.48,0,0,1,0,.2h0l.26,0a1.73,1.73,0,0,1,.39.09c.31.12.41.35.42.82v3.75a9.43,9.43,0,0,0,.07,1.06,2.66,2.66,0,0,0,.53,1.31.56.56,0,0,1,0,.08,2.48,2.48,0,0,0,1.26.76,4.46,4.46,0,0,0,2.35,0,2.35,2.35,0,0,0,1.09-.62,2.32,2.32,0,0,0,.64-1.2,6.48,6.48,0,0,0,.09-.77c0-.12,0-.24,0-.37,0-1.11,0-2.22,0-3.33,0-.3,0-.61.08-.91a.59.59,0,0,1,.14-.31s0-.05,0-.06a.81.81,0,0,1,.35-.2l.42-.1L83,21c0-.07,0-.13,0-.2H80.18V21h0l.45.11a.7.7,0,0,1,.58.66,5.05,5.05,0,0,1,.06.68c0,1.12,0,2.23,0,3.35a7.73,7.73,0,0,1-.06,1,1.84,1.84,0,0,1-.89,1.43,1.62,1.62,0,0,1-.4.18,2.89,2.89,0,0,1-1.65,0l-.14-.05a2.2,2.2,0,0,1-.46-.23,1.64,1.64,0,0,1-.54-.72,1,1,0,0,1-.1-.26c0-.09,0-.19,0-.29a3.72,3.72,0,0,1-.08-.66q0-1.42,0-2.85c0-.44,0-.87,0-1.3,0,0,0-.08,0-.12l0-.28a.62.62,0,0,1,.15-.37l.06,0a.57.57,0,0,1,.3-.15l.15,0L78,21v-.19H74.62Z"/><path class="cls-3" d="M93.83,18.69c0-.37,0-.41-.4-.41H73.83c-.22,0-.31,0-.34.18a.74.74,0,0,0,0,.18v1.11c0,.39,0,.43.43.43H93.5c.18,0,.26,0,.3-.13a.55.55,0,0,0,0-.21Z"/><path class="cls-3" d="M90.76,27.7a1,1,0,0,1-.12.26,1.17,1.17,0,0,1-.61.53,1,1,0,0,1-.34.09,1.87,1.87,0,0,1-.47,0A2.1,2.1,0,0,1,88,28.06a3.27,3.27,0,0,1-.92-1.39h0a.27.27,0,0,0-.13-.17.26.26,0,0,0-.21,0h0c.12.84.23,1.67.35,2.49.16.05.25,0,.31-.14a.34.34,0,0,1,.15-.21.48.48,0,0,1,.27,0l.49.16a3.58,3.58,0,0,0,.56.16,3.16,3.16,0,0,0,1.37,0,2.24,2.24,0,0,0,1.66-1.37A2.14,2.14,0,0,0,92,26.28h0a2.11,2.11,0,0,0-.9-1.2c-.35-.25-.71-.48-1.07-.71l-.69-.46c-.11-.07-.2-.16-.31-.23s-.36-.26-.52-.41a1.11,1.11,0,0,1-.34-.59,1.18,1.18,0,0,1,0-.59,1.39,1.39,0,0,1,.06-.19l0,0a1.26,1.26,0,0,1,1.2-.57,2.16,2.16,0,0,1,1.79,1.28c.12.24.2.51.3.77h.26c0-.29-.06-.56-.09-.84-.06-.56-.12-1.12-.17-1.67h-.09c-.09,0-.13,0-.16.05l0,.09a.34.34,0,0,1-.47.22L90,21a2.58,2.58,0,0,0-.6-.13h-.07a2.67,2.67,0,0,0-.69,0,1.94,1.94,0,0,0-1.22.77A2,2,0,0,0,87,23a1.89,1.89,0,0,0,.78,1.39l.06,0c.47.34,1,.64,1.45,1a11.56,11.56,0,0,1,1.06.78,1,1,0,0,1,.19.23.89.89,0,0,1,.14.25,1.28,1.28,0,0,1,.09.73,1.37,1.37,0,0,1,0,.28"/><path class="cls-3" d="M93.4,29.65H73.77c-.21,0-.29.08-.29.3,0,.41,0,.82,0,1.23s0,.37.36.37H93.46c.32,0,.37-.05.37-.38V30.09c0-.4,0-.44-.43-.44"/><path class="cls-3" d="M83.19,29h3.55v-.19l-.24,0-.42-.08a.48.48,0,0,1-.37-.28.54.54,0,0,1-.1-.23,5.09,5.09,0,0,1,0-.55V22.22a3.27,3.27,0,0,1,0-.54.6.6,0,0,1,.55-.59l.4-.06.19,0c0-.07,0-.13,0-.19H83.18V21l.69.13a.52.52,0,0,1,.42.44c0,.06,0,.11,0,.16a2.58,2.58,0,0,1,0,.39c0,1.83,0,3.66,0,5.48,0,.12,0,.24,0,.36a.86.86,0,0,1,0,.16,1.46,1.46,0,0,1,0,.27c-.08.22-.23.32-.54.37s-.36.06-.56.09h0a1.37,1.37,0,0,1,0,.19"/><path class="cls-3" d="M78,14.62a17.09,17.09,0,0,1,1.13-4.39,9.3,9.3,0,0,1,2.74-3.67L82,6.43l.08,0a10.09,10.09,0,0,0-2.23,2.94,14.6,14.6,0,0,0-1.11,3.22,18.36,18.36,0,0,0-.51,3.14s0,.1,0,.12-.14.15-.18.13a.24.24,0,0,1-.14-.18A11.11,11.11,0,0,1,78,14.62m4.26-6c.22-.68.5-1.35.75-2l.09-.18h0c-.1.33-.21.66-.31,1a28.91,28.91,0,0,0-1,5.4c-.08,1-.15,1.91-.23,2.87a.39.39,0,0,1-.06.21.14.14,0,0,1-.25,0,.47.47,0,0,1,0-.17,25,25,0,0,1,1-7.08m.4-4.16V3.19a.37.37,0,1,1,.74,0c0,.56,0,1.12,0,1.7h-.74Zm1.24.06V3.35a1.77,1.77,0,0,1,0-.23.38.38,0,0,1,.38-.33.38.38,0,0,1,.36.36c0,.57,0,1.13,0,1.72H83.9ZM86,13c.08.88.13,1.77.2,2.66h0c0,.13,0,.27-.16.28s-.17-.13-.18-.25l-.06-1a31.86,31.86,0,0,0-.61-5c-.23-1-.52-2-.79-3.06a2.58,2.58,0,0,0-.08-.26l0,0c.22.58.44,1.15.64,1.74A22,22,0,0,1,86,13m-.57-6.6c.23.21.47.41.7.63a10.22,10.22,0,0,1,2.76,4.82,17.06,17.06,0,0,1,.64,3.81.39.39,0,0,1,0,.19.26.26,0,0,1-.17.09.43.43,0,0,1-.15-.21c-.07-.46-.09-.93-.16-1.39A16.82,16.82,0,0,0,87.34,9a9.48,9.48,0,0,0-1.9-2.46.47.47,0,0,0-.12-.07l.06-.07M74.84,17.66H92.48c.23,0,.3-.07.3-.29v-1c0-.22-.08-.3-.3-.3H92c-.16-.85-.29-1.68-.47-2.49a14.45,14.45,0,0,0-1.85-4.68,7.08,7.08,0,0,0-3.76-3c-.14,0-.34,0-.42-.15s0-.31,0-.47-.06-.3-.26-.29-.17-.06-.17-.19c0-.64,0-1.29,0-1.94,0,0,0-.11,0-.16.37,0,.42-.07.43-.3,0-.42,0-.45-.41-.54,0-.06,0-.13,0-.2A2.2,2.2,0,0,0,84.62.5,1.19,1.19,0,0,0,83.54,0,1.27,1.27,0,0,0,82.49.8c-.13.31-.21.64-.32,1-.34.05-.37.07-.38.32,0,.43,0,.43.42.52V4.86c-.41.12-.41.12-.41.57V5.5c0,.13,0,.18-.16.23a10.61,10.61,0,0,0-1.47.62,7.46,7.46,0,0,0-2.86,3,17.31,17.31,0,0,0-1.93,6.2c-.07.49,0,.49-.55.5-.23,0-.3.07-.3.31v1c0,.24.07.3.31.3"/></g><polygon class="cls-3" points="0 4.86 0 12.04 4.06 12.04 4.06 24.35 0 24.35 0 31.53 18.25 31.53 18.25 24.35 14.2 24.35 14.2 12.04 18.25 12.04 18.25 4.86 0 4.86"/></svg>